<?xml version="1.0" encoding="utf-8"?>
<!-- Generator: Adobe Illustrator 27.9.0, SVG Export Plug-In . SVG Version: 6.00 Build 0)  -->
<svg version="1.1" id="Layer_1" xmlns="http://www.w3.org/2000/svg" xmlns:xlink="http://www.w3.org/1999/xlink" x="0px" y="0px"
	 viewBox="0 0 1013 355.4" style="enable-background:new 0 0 1013 355.4;" xml:space="preserve">
<style type="text/css">
	.st0{fill:#C49A6C;}
	.st1{fill:none;stroke:#A7A9AC;stroke-width:5.5;stroke-miterlimit:10;}
	.st2{fill:#BFB6A6;}
	.st3{fill:#594A42;stroke:#FFFFFF;stroke-width:6;stroke-miterlimit:10;}
	.st4{fill:#594A42;}
</style>
<g id="Layer_3">
	<g id="Layer_4">
		<path class="st0" d="M282.1,337.8c-0.6,0-1.1-0.2-1.6-0.6c-0.4-0.4-0.7-0.9-0.7-1.5v-53.5c0-0.6,0.2-1.1,0.7-1.5
			c0.4-0.4,1-0.6,1.6-0.6h11c1,0,1.7,0.3,2.2,0.8c0.5,0.6,0.8,0.9,1,1.2l13.2,23l13.2-23c0.2-0.2,0.5-0.6,1-1.2s1.2-0.8,2.2-0.8h11
			c0.6,0,1.1,0.2,1.5,0.6s0.6,0.9,0.6,1.5v53.5c0,0.6-0.2,1.1-0.6,1.5s-0.9,0.6-1.5,0.6h-12.4c-0.6,0-1.1-0.2-1.5-0.6
			s-0.6-0.9-0.6-1.5v-26.8L315,322c-0.3,0.4-0.6,0.9-1.1,1.3c-0.4,0.4-1.1,0.7-1.9,0.7h-5c-0.8,0-1.4-0.2-1.8-0.7
			c-0.4-0.4-0.8-0.9-1.1-1.3l-7.4-13.1v26.8c0,0.6-0.2,1.1-0.6,1.5s-0.9,0.6-1.5,0.6h-12.4H282.1z"/>
		<path class="st0" d="M346.4,337.8c-0.5,0-0.9-0.2-1.3-0.5c-0.4-0.4-0.5-0.8-0.5-1.3s0-0.4,0.2-0.6l18.8-52.9
			c0.2-0.6,0.5-1.2,1.1-1.7c0.6-0.6,1.4-0.8,2.4-0.8h15.1c1,0,1.8,0.3,2.4,0.8c0.5,0.6,0.9,1.1,1.1,1.7l18.9,52.9c0,0.2,0,0.4,0,0.6
			c0,0.5-0.2,0.9-0.5,1.3c-0.4,0.4-0.8,0.5-1.3,0.5h-12.7c-0.9,0-1.6-0.2-2.1-0.7c-0.4-0.4-0.7-0.9-0.9-1.2l-2.6-6.9h-19.9l-2.6,6.9
			c-0.2,0.4-0.5,0.8-0.9,1.2c-0.4,0.4-1.1,0.7-2.1,0.7h-12.7H346.4z M368.5,315h12.3l-6.2-18.6L368.5,315L368.5,315z"/>
		<path class="st0" d="M412.3,337.8c-0.6,0-1-0.2-1.5-0.6c-0.4-0.4-0.7-0.9-0.7-1.5v-53.5c0-0.6,0.2-1.1,0.7-1.5
			c0.4-0.4,0.9-0.6,1.5-0.6h22.6c5.3,0,10,0.9,13.9,2.6s7,4.3,9.3,7.6c2.3,3.4,3.5,7.5,3.6,12.4c0.1,2.4,0.2,4.5,0.2,6.3
			s0,3.9-0.2,6.2c-0.2,5.2-1.4,9.4-3.5,12.8s-5.1,5.9-9,7.5s-8.5,2.4-13.9,2.4h-23.1L412.3,337.8z M427.9,323.8h7
			c1.8,0,3.4-0.3,4.6-0.9c1.3-0.6,2.3-1.6,3-2.9s1.1-3,1.2-5c0-1.6,0-3,0.1-4.3c0-1.3,0-2.5,0-3.8s0-2.7-0.1-4.2
			c-0.1-3-1-5.2-2.6-6.6s-3.8-2.1-6.6-2.1h-6.6V323.8L427.9,323.8z"/>
		<path class="st0" d="M472.5,337.8c-0.6,0-1-0.2-1.5-0.6c-0.4-0.4-0.7-0.9-0.7-1.5v-53.5c0-0.6,0.2-1.1,0.7-1.5
			c0.4-0.4,0.9-0.6,1.5-0.6H513c0.6,0,1.1,0.2,1.6,0.6c0.4,0.4,0.7,0.9,0.7,1.5v9.8c0,0.6-0.2,1-0.7,1.5s-1,0.7-1.6,0.7h-25.5v8.2
			h23.7c0.6,0,1.1,0.2,1.6,0.6c0.4,0.4,0.7,0.9,0.7,1.5v8.9c0,0.6-0.2,1.1-0.7,1.5c-0.4,0.4-1,0.6-1.6,0.6h-23.7v8.3h26.2
			c0.6,0,1.1,0.2,1.6,0.7c0.4,0.4,0.7,1,0.7,1.6v9.7c0,0.6-0.2,1.1-0.7,1.5c-0.4,0.4-1,0.6-1.6,0.6h-41.2L472.5,337.8z"/>
		<path class="st0" d="M542.9,337.8c-0.6,0-1-0.2-1.5-0.6c-0.4-0.4-0.7-0.9-0.7-1.5v-53.5c0-0.6,0.2-1.1,0.7-1.5
			c0.4-0.4,0.9-0.6,1.5-0.6h26.4c5,0,9.1,0.7,12.3,2s5.6,3.2,7.1,5.7s2.3,5.5,2.3,9.2s-0.4,3.5-1.1,5c-0.7,1.5-1.6,2.7-2.7,3.6
			c-1,1-2,1.7-3,2.1c2.1,0.9,4,2.5,5.6,4.8c1.6,2.2,2.4,4.8,2.4,7.6s-0.9,7.1-2.6,9.8s-4.2,4.7-7.5,6c-3.3,1.4-7.3,2.1-12,2.1h-27.2
			V337.8z M558.5,302.4h8.8c1.8,0,3.1-0.5,3.9-1.5c0.8-1,1.2-2.1,1.2-3.5s-0.4-2.5-1.2-3.5s-2.1-1.5-3.9-1.5h-8.8v9.9V302.4z
			 M558.5,325.4h9.7c1.9,0,3.2-0.6,4.1-1.7c0.9-1.1,1.3-2.4,1.3-3.8s-0.5-2.7-1.4-3.8c-0.9-1.1-2.3-1.6-4-1.6h-9.7v10.8L558.5,325.4
			z"/>
		<path class="st0" d="M614.9,337.8c-0.6,0-1.1-0.2-1.5-0.6s-0.6-0.9-0.6-1.5v-17L594,282.6c0-0.1-0.1-0.2-0.2-0.4
			c0-0.1,0-0.3,0-0.4c0-0.5,0.2-0.9,0.5-1.3s0.8-0.5,1.3-0.5h12.9c1,0,1.7,0.2,2.2,0.7s0.8,0.9,1,1.2l10.1,19l10.1-19
			c0.1-0.3,0.4-0.7,0.9-1.2s1.2-0.7,2.2-0.7h13c0.4,0,0.8,0.2,1.2,0.5c0.4,0.4,0.5,0.8,0.5,1.3s0,0.2,0,0.4c0,0.1,0,0.3-0.1,0.4
			l-18.9,36.1v17c0,0.6-0.2,1.1-0.6,1.5s-0.9,0.6-1.5,0.6h-13.5H614.9z"/>
		<path class="st0" d="M694.6,338.6c-5.2,0-9.8-0.8-13.7-2.4s-7-4.1-9.2-7.4s-3.5-7.5-3.7-12.6c0-2.3,0-4.7,0-7.3s0-5.1,0-7.4
			c0.2-5,1.5-9.1,3.8-12.4s5.4-5.8,9.3-7.5c3.9-1.7,8.4-2.5,13.5-2.5s7,0.4,10.2,1.3s6,2.1,8.5,3.9s4.4,3.9,5.9,6.4
			c1.4,2.6,2.2,5.5,2.2,9c0,0.5-0.2,0.9-0.5,1.2c-0.4,0.3-0.8,0.5-1.3,0.5h-14c-0.8,0-1.4-0.2-1.8-0.5c-0.4-0.3-0.7-0.9-1-1.7
			c-0.7-2.4-1.8-4-3.1-4.8c-1.4-0.8-3.1-1.2-5-1.2s-4.4,0.6-5.8,1.9c-1.4,1.3-2.2,3.6-2.3,6.8c-0.2,4.5-0.2,9.1,0,13.9
			c0.1,3.3,0.9,5.5,2.3,6.8c1.4,1.3,3.4,1.9,5.8,1.9s3.7-0.4,5.1-1.3c1.4-0.9,2.4-2.5,3.1-4.7c0.2-0.9,0.5-1.5,1-1.8
			c0.4-0.3,1-0.5,1.9-0.5h14c0.5,0,0.9,0.2,1.3,0.5c0.4,0.3,0.5,0.7,0.5,1.2c0,3.4-0.8,6.4-2.2,9s-3.4,4.7-5.9,6.4s-5.3,3-8.5,3.9
			s-6.6,1.3-10.2,1.3L694.6,338.6z"/>
		<path class="st0" d="M753.9,338.6c-5.3,0-9.9-0.8-13.8-2.5c-3.9-1.7-6.9-4.1-9.2-7.5c-2.2-3.3-3.4-7.5-3.6-12.4c0-2.3,0-4.7,0-7.1
			s0-4.9,0-7.3c0.2-4.9,1.4-9,3.6-12.4c2.2-3.4,5.3-5.9,9.2-7.6s8.5-2.6,13.7-2.6s9.7,0.9,13.6,2.6c3.9,1.7,7,4.3,9.3,7.6
			c2.3,3.4,3.4,7.5,3.6,12.4c0.1,2.4,0.2,4.9,0.2,7.3s0,4.8-0.2,7.1c-0.2,5-1.4,9.1-3.6,12.4c-2.2,3.3-5.3,5.8-9.2,7.5
			s-8.4,2.5-13.7,2.5H753.9z M753.9,324.6c2.3,0,4.2-0.7,5.7-2.1s2.3-3.6,2.3-6.7c0.1-2.4,0.2-4.7,0.2-6.9s0-4.5-0.2-6.8
			c0-2-0.4-3.7-1.1-5c-0.7-1.3-1.6-2.3-2.8-2.9s-2.5-0.9-4.1-0.9s-2.9,0.3-4.1,0.9c-1.2,0.6-2.2,1.6-2.9,2.9s-1.1,3-1.1,5
			c0,2.3,0,4.6,0,6.8s0,4.5,0,6.9c0.1,3.1,0.9,5.3,2.4,6.7C749.7,323.9,751.6,324.6,753.9,324.6L753.9,324.6z"/>
		<path class="st0" d="M791.2,337.8c-0.6,0-1-0.2-1.5-0.6c-0.4-0.4-0.7-0.9-0.7-1.5v-53.5c0-0.6,0.2-1.1,0.7-1.5
			c0.4-0.4,0.9-0.6,1.5-0.6H831c0.6,0,1.1,0.2,1.6,0.6c0.4,0.4,0.7,0.9,0.7,1.5v10.5c0,0.6-0.2,1-0.7,1.5c-0.4,0.4-1,0.7-1.6,0.7
			h-24.5v9.1h22.9c0.6,0,1.1,0.2,1.6,0.6c0.4,0.4,0.7,0.9,0.7,1.5v10.4c0,0.6-0.2,1.1-0.7,1.5c-0.4,0.4-1,0.6-1.6,0.6h-22.9v17.1
			c0,0.6-0.2,1.1-0.6,1.5s-0.9,0.6-1.5,0.6h-13.1L791.2,337.8z"/>
		<path class="st0" d="M843.4,337.8c-0.6,0-1-0.2-1.5-0.6c-0.4-0.4-0.7-0.9-0.7-1.5v-53.5c0-0.6,0.2-1.1,0.7-1.5
			c0.4-0.4,0.9-0.6,1.5-0.6h39.8c0.6,0,1.1,0.2,1.6,0.6c0.4,0.4,0.7,0.9,0.7,1.5v10.5c0,0.6-0.2,1-0.7,1.5c-0.4,0.4-1,0.7-1.6,0.7
			h-24.5v9.1h22.9c0.6,0,1.1,0.2,1.6,0.6c0.4,0.4,0.7,0.9,0.7,1.5v10.4c0,0.6-0.2,1.1-0.7,1.5c-0.4,0.4-1,0.6-1.6,0.6h-22.9v17.1
			c0,0.6-0.2,1.1-0.6,1.5s-0.9,0.6-1.5,0.6h-13.1L843.4,337.8z"/>
		<path class="st0" d="M895.6,337.8c-0.6,0-1-0.2-1.5-0.6c-0.4-0.4-0.7-0.9-0.7-1.5v-53.5c0-0.6,0.2-1.1,0.7-1.5
			c0.4-0.4,0.9-0.6,1.5-0.6h40.5c0.6,0,1.1,0.2,1.6,0.6c0.4,0.4,0.7,0.9,0.7,1.5v9.8c0,0.6-0.2,1-0.7,1.5s-1,0.7-1.6,0.7h-25.5v8.2
			h23.7c0.6,0,1.1,0.2,1.6,0.6c0.4,0.4,0.7,0.9,0.7,1.5v8.9c0,0.6-0.2,1.1-0.7,1.5c-0.4,0.4-1,0.6-1.6,0.6h-23.7v8.3h26.2
			c0.6,0,1.1,0.2,1.6,0.7c0.4,0.4,0.7,1,0.7,1.6v9.7c0,0.6-0.2,1.1-0.7,1.5c-0.4,0.4-1,0.6-1.6,0.6h-41.2V337.8z"/>
		<path class="st0" d="M949.6,337.8c-0.6,0-1-0.2-1.5-0.6c-0.4-0.4-0.7-0.9-0.7-1.5v-53.5c0-0.6,0.2-1.1,0.7-1.5
			c0.4-0.4,0.9-0.6,1.5-0.6h40.5c0.6,0,1.1,0.2,1.6,0.6c0.4,0.4,0.7,0.9,0.7,1.5v9.8c0,0.6-0.2,1-0.7,1.5s-1,0.7-1.6,0.7h-25.5v8.2
			h23.7c0.6,0,1.1,0.2,1.6,0.6c0.4,0.4,0.7,0.9,0.7,1.5v8.9c0,0.6-0.2,1.1-0.7,1.5c-0.4,0.4-1,0.6-1.6,0.6h-23.7v8.3h26.2
			c0.6,0,1.1,0.2,1.6,0.7c0.4,0.4,0.7,1,0.7,1.6v9.7c0,0.6-0.2,1.1-0.7,1.5c-0.4,0.4-1,0.6-1.6,0.6h-41.2V337.8z"/>
	</g>
</g>
<g id="Layer_3_copy_2">
	<path class="st1" d="M199.5,101.2c0,0,11.3-28.5,13.6-33c2.4-4.7,10.2-2.5,7.3,3.9c-6.4,14.3-0.8,18,6.7,2.6
		c2.7-5.6,9.8-1.7,7.6,3.1c-2.2,4.8-19.5,33.9-19.5,33.9l-16.7-7.5"/>
	<path class="st2" d="M268.8,44.6c-1.8-4.5-4.3-8.6-7.4-12.4c-3.5-4.3-7.7-8-12.6-10.6c-3.7-1.9-7.5-3.5-11.6-4.5
		c-9.4-2.1-18.5-1.2-27.4,2.3c-4.6,1.8-8.9,4.4-12.8,7.5c-5.8,4.7-10.3,10.4-13.5,17c-1.9,4-3.5,8.1-4.4,12.5
		c-1.4,6.9-1.5,13.9,0,20.8c0.7,3.1,1.4,6.2,1.8,9.4c0.7,6.7,0.4,13.4-1,20c-0.1,0.5-0.2,1-0.5,1.4c-0.5,0.5-0.8,1.1-1.1,1.8
		c-0.4,0.9-0.7,1.7-1.1,2.6c-0.3,0.6-0.6,0.8-1.3,0.6c-1.5-0.4-2.7,0.2-3.4,1.6c-0.3,0.7-0.6,1.4-0.9,2.1c-0.5,1.5,0,2.8,1.3,3.6
		c0.9,0.6,0.5,1.2,0.3,1.9c-0.3,0.7-0.7,1.1-1.5,0.8c-1.3-0.4-2.5,0-3.2,1.2c-0.6,1-1.1,2.2-1.3,3.4c-0.1,1.1,0.2,2.1,1.2,2.6
		s1.1,1.1,0.7,2c-0.2,0.3-0.3,0.7-0.4,1c-0.3,0.7-0.7,0.9-1.5,0.7c-1.7-0.6-3,0-3.7,1.6c-0.3,0.7-0.6,1.3-0.8,2
		c-0.5,1.4-0.2,2.5,0.9,3.5c0.4,0.4,1,0.6,1.5,0.8s0.8,0.5,0.8,1.1c0,1.6,0.4,3.2,0.9,4.7c1.3,3.9,3.8,7,7.5,8.8
		c0.8,0.4,1,0.8,0.8,1.7c-1.2,4.1,0.6,7.7,4.5,9.4c1.1,0.5,2.3,0.9,3.4,1.4c1.3,0.5,2.6,1.1,3.9,1.6c1.2,0.5,2.4,0.6,3.7,0.4
		c2.4-0.5,4.3-1.6,5.5-3.9c0.3-0.6,0.6-1.2,1.6-1c5.5,1.3,10.3-0.1,14.6-3.8c0.5-0.4,1-0.6,1.5-0.3c0.6,0.3,1.3,0.3,1.9,0.2
		c1.9-0.5,3.7-4,3-5.9c-0.2-0.5-0.5-1.1-1-1.3c-0.8-0.4-0.7-1-0.5-1.7c0.2-0.4,0.4-0.8,0.6-1.2c0.3-0.6,0.7-0.9,1.4-0.7
		c1.3,0.3,2.5-0.4,3.1-1.6c0.4-0.7,0.7-1.5,0.9-2.3c0.4-1.3,0-2.7-1-3.3c-0.9-0.5-0.8-1.1-0.4-1.8c0.3-0.7,0.6-1.3,1.6-1
		c1.2,0.3,2.3-0.1,3-1.2c0.5-0.8,0.8-1.7,1.1-2.5c0.5-1.6,0.2-2.6-1.2-3.5c-0.7-0.5-0.8-1-0.4-1.7c0.7-1.3,1.4-2.7,2.2-4
		c4.3-7.6,10-14,17.2-19.1c3.4-2.5,7.1-4.6,10.2-7.5c4.9-4.5,8.8-9.8,11.7-15.8c2.3-4.8,3.9-9.8,4.6-15.1c1.2-8.9,0.3-17.6-3-25.9
		L268.8,44.6z M259.9,79c-9.2,22.4-32.1,34.1-51.2,26.3S181.6,73,190.8,50.6c9.2-22.4,32.1-34.1,51.2-26.3S269.1,56.6,259.9,79z"/>
	<path class="st0" d="M112.1,151.9c5.2-6.5,9.7-13.3,12.2-21.2c3.3-10.3,1.7-20.5-1.2-30.6c-2-7.1-4.3-14.2-5.9-21.5
		c-3.1-13.6,0.1-26.1,7.8-37.5c2-3,4.3-5.7,7-8.4c-0.2,0.7-0.3,1.4-0.6,2.1c-4.9,11.7-4.9,23.6-1.4,35.5c2.2,7.4,4.9,14.5,7.3,21.8
		c2.5,7.6,4.3,15.2,3.2,23.3c-0.9,7-4.1,13-8.3,18.5c-5.2,6.8-11.7,12.2-18.7,17.2c-0.4,0.3-1,0.4-1.5,0.6L112.1,151.9z"/>
	<path class="st0" d="M392.1,271.8c5-5,9.2-10.2,11.4-16.5c2.8-8.3,0.5-16.7-3.2-25.1c-2.6-6-5.4-11.9-7.6-18
		c-4.1-11.3-1.5-21.3,5.8-30.2c1.9-2.3,4.1-4.4,6.7-6.4c-0.1,0.6-0.2,1.1-0.5,1.7c-4.4,9.2-3.6,19,0.8,29c2.7,6.2,6,12.2,9,18.3
		c3.1,6.4,5.5,12.8,4.9,19.3c-0.5,5.7-3.5,10.4-7.5,14.6c-5,5.2-11.5,9.3-18.4,12.9c-0.4,0.2-1,0.3-1.5,0.4H392.1z"/>
	<path class="st0" d="M433.2,255.8c5-5,9.2-10.2,11.4-16.5c2.8-8.3,0.5-16.7-3.2-25.1c-2.6-6-5.4-11.9-7.6-18
		c-4.1-11.3-1.5-21.3,5.8-30.2c1.9-2.3,4.1-4.4,6.7-6.4c-0.1,0.6-0.2,1.1-0.5,1.7c-4.4,9.2-3.6,19,0.8,29c2.7,6.2,6,12.2,9,18.3
		c3.1,6.4,5.5,12.8,4.9,19.3c-0.5,5.7-3.5,10.4-7.5,14.6c-5,5.2-11.5,9.3-18.4,12.9c-0.4,0.2-1,0.3-1.5,0.4H433.2z"/>
	<path class="st0" d="M571.3,262.3c3.3-3.3,6.1-6.7,7.5-10.9c1.8-5.4,0.3-11-2.1-16.5c-1.7-3.9-3.5-7.8-5-11.8
		c-2.7-7.5-1-14,3.8-19.8c1.2-1.5,2.7-2.9,4.4-4.2c0,0.4-0.1,0.8-0.3,1.1c-2.9,6.1-2.4,12.5,0.5,19.1c1.8,4.1,4,8,5.9,12.1
		c2.1,4.2,3.6,8.4,3.2,12.7c-0.3,3.7-2.3,6.8-4.9,9.6c-3.3,3.4-7.5,6.1-12.1,8.5c-0.3,0.1-0.7,0.2-1,0.3L571.3,262.3z"/>
	<path class="st0" d="M700.5,268.7c5-5,9.2-10.2,11.4-16.5c2.8-8.3,0.5-16.7-3.2-25.1c-2.6-6-5.4-11.9-7.6-18
		c-4.1-11.3-1.5-21.3,5.8-30.2c1.9-2.3,4.1-4.4,6.7-6.4c-0.1,0.6-0.2,1.1-0.5,1.7c-4.4,9.2-3.6,19,0.8,29c2.7,6.2,6,12.2,9,18.3
		c3.1,6.4,5.5,12.8,4.9,19.3c-0.5,5.7-3.5,10.4-7.5,14.6c-5,5.2-11.5,9.3-18.4,12.9C701.5,268.5,700.9,268.6,700.5,268.7
		L700.5,268.7z"/>
	<path class="st0" d="M798.4,270c6.2-6.3,11.5-12.8,14.2-20.6c3.5-10.3,0.6-20.8-4-31.4c-3.2-7.5-6.7-14.9-9.5-22.4
		c-5.1-14.2-1.9-26.6,7.2-37.7c2.4-2.9,5.1-5.5,8.4-8c-0.2,0.7-0.3,1.4-0.6,2.1c-5.4,11.5-4.5,23.7,1,36.2
		c3.4,7.7,7.5,15.3,11.3,22.9c3.9,7.9,6.8,15.9,6.1,24.1c-0.6,7.1-4.3,13-9.4,18.3c-6.3,6.5-14.3,11.6-22.9,16.1
		c-0.5,0.3-1.2,0.4-1.9,0.5L798.4,270z"/>
	<path class="st0" d="M735.1,241.3c3.2-3.3,6-6.7,7.4-10.8c1.8-5.4,0.3-10.8-2.1-16.4c-1.7-3.9-3.5-7.8-4.9-11.7
		c-2.7-7.4-1-13.9,3.7-19.6c1.2-1.5,2.7-2.9,4.4-4.2c0,0.4-0.1,0.7-0.3,1.1c-2.8,6-2.3,12.4,0.5,18.9c1.8,4,3.9,8,5.9,11.9
		c2,4.1,3.5,8.3,3.2,12.6c-0.3,3.7-2.2,6.8-4.9,9.5c-3.3,3.4-7.5,6-12,8.4C735.7,241.1,735.4,241.2,735.1,241.3L735.1,241.3z"/>
	<path class="st0" d="M846.3,267.2c3.2-3.3,6-6.7,7.4-10.8c1.8-5.4,0.3-10.8-2.1-16.4c-1.7-3.9-3.5-7.8-4.9-11.7
		c-2.7-7.4-1-13.9,3.7-19.6c1.2-1.5,2.7-2.9,4.4-4.2c0,0.4-0.1,0.7-0.3,1.1c-2.8,6-2.3,12.4,0.5,18.9c1.8,4,3.9,8,5.9,11.9
		c2,4.1,3.5,8.3,3.2,12.6c-0.3,3.7-2.2,6.8-4.9,9.5c-3.3,3.4-7.5,6-12,8.4C846.9,267,846.6,267.1,846.3,267.2L846.3,267.2z"/>
	<path class="st0" d="M80,155.2c3.8-4.8,7-9.7,8.9-15.4c2.4-7.5,1.3-14.9-0.8-22.3c-1.5-5.2-3.1-10.4-4.3-15.7
		c-2.2-9.9,0.1-19,5.7-27.3c1.5-2.2,3.1-4.2,5.1-6.1c-0.1,0.5-0.2,1-0.4,1.5c-3.6,8.5-3.6,17.2-1,25.9c1.6,5.4,3.6,10.6,5.3,15.9
		c1.8,5.5,3.1,11.1,2.3,17c-0.7,5.1-3,9.5-6.1,13.5c-3.8,5-8.6,8.9-13.6,12.6c-0.3,0.2-0.7,0.3-1.1,0.5V155.2z"/>
	<path class="st3" d="M24.2,159.5h259v10.4l21.4-5.2c0,0,31.8-5.5,39.4,23.8c7.6,29.4-49.7,81.2-87.4,81.2
		c-8.3,11.7-33.2,35.2-53.2,35.2H103.3c0,0-31.4-3.5-48.7-35.9C37.3,236.5,29.4,214.8,24.2,159.5L24.2,159.5z"/>
	<path class="st4" d="M55.7,312.6h195.8c0,0-7.8,21.6-27.1,21.6H85.8C64.4,334.2,55.6,312.6,55.7,312.6L55.7,312.6z"/>
</g>
</svg>
