<?xml version="1.0" encoding="utf-8"?>
<!-- Generator: Adobe Illustrator 27.9.0, SVG Export Plug-In . SVG Version: 6.00 Build 0)  -->
<svg version="1.1" id="Layer_3" xmlns="http://www.w3.org/2000/svg" xmlns:xlink="http://www.w3.org/1999/xlink" x="0px" y="0px"
	 viewBox="0 0 1030.8 573.2" style="enable-background:new 0 0 1030.8 573.2;" xml:space="preserve">
<style type="text/css">
	.st0{fill:none;stroke:#A7A9AC;stroke-width:10.1;stroke-miterlimit:10;}
	.st1{fill:#BFB6A6;}
	.st2{fill:#C49A6C;}
	.st3{fill:#594A42;stroke:#FFFFFF;stroke-width:10.1;stroke-miterlimit:10;}
	.st4{fill:#594A42;}
	.st5{fill:#FFFFFF;}
</style>
<path class="st0" d="M577.5,177c0,0,20.8-52.1,25-60.4c4.4-8.6,18.7-4.6,13.5,7.1c-11.7,26.3-1.5,33,12.2,4.8
	c5-10.3,18-3.2,13.9,5.8c-4,8.7-35.7,62.2-35.7,62.2l-30.6-13.8"/>
<path class="st1" d="M704.6,73.4c-3.3-8.3-7.8-15.8-13.5-22.7c-6.5-7.9-14.2-14.6-23.2-19.3c-6.7-3.5-13.8-6.5-21.3-8.2
	c-17.2-3.9-33.9-2.3-50.1,4.2c-8.5,3.4-16.3,8-23.4,13.8c-10.6,8.6-18.9,19-24.8,31.2c-3.6,7.3-6.4,14.9-8,23
	c-2.6,12.7-2.7,25.4,0,38.1c1.2,5.7,2.7,11.3,3.3,17.1c1.3,12.3,0.8,24.5-1.8,36.6c-0.2,0.9-0.3,1.9-1,2.5c-1,0.9-1.4,2.1-1.9,3.2
	c-0.6,1.6-1.3,3.1-1.9,4.7c-0.5,1.1-1.1,1.5-2.4,1.2c-2.8-0.7-5,0.4-6.3,3c-0.6,1.3-1.1,2.6-1.6,3.9c-0.9,2.7,0,5.1,2.4,6.5
	c1.7,1,0.9,2.2,0.5,3.5c-0.5,1.3-1.2,2-2.8,1.5c-2.4-0.8-4.6,0-6,2.2c-1.2,1.9-2.1,4-2.3,6.3c-0.2,2,0.4,3.9,2.3,4.8
	c1.9,0.9,2.1,2,1.3,3.6c-0.3,0.6-0.5,1.2-0.8,1.8c-0.5,1.3-1.2,1.7-2.7,1.2c-3-1.1-5.5,0-6.9,3c-0.6,1.2-1.1,2.5-1.5,3.7
	c-1,2.6-0.5,4.5,1.7,6.3c0.8,0.7,1.8,1.1,2.7,1.4c1,0.4,1.5,1,1.5,2c0,3,0.8,5.8,1.7,8.5c2.4,7.2,6.9,12.7,13.8,16.1
	c1.5,0.7,1.9,1.4,1.4,3c-2.2,7.5,1,14.2,8.3,17.1c2.1,0.9,4.2,1.7,6.2,2.6c2.4,1,4.7,1.9,7.1,2.9c2.2,0.9,4.5,1.1,6.8,0.7
	c4.4-0.8,7.9-3,10-7.1c0.6-1.1,1.1-2.2,2.9-1.8c10.1,2.4,18.9-0.2,26.7-6.9c0.9-0.8,1.8-1,2.8-0.5c1.1,0.6,2.3,0.6,3.5,0.3
	c3.5-0.9,6.8-7.4,5.6-10.9c-0.4-1-0.9-2-1.8-2.4c-1.5-0.8-1.4-1.8-0.9-3c0.3-0.8,0.8-1.5,1.2-2.2c0.6-1.1,1.2-1.6,2.6-1.3
	c2.5,0.5,4.6-0.7,5.7-3c0.7-1.4,1.2-2.8,1.7-4.2c0.8-2.4,0.1-5-1.9-6.1c-1.6-0.9-1.4-2-0.8-3.3c0.6-1.3,1.2-2.3,3-1.8
	c2.3,0.6,4.2-0.2,5.5-2.2c0.9-1.4,1.5-3,2.1-4.6c1-2.9,0.4-4.8-2.1-6.5c-1.3-0.9-1.5-1.8-0.8-3c1.4-2.4,2.6-4.9,4-7.3
	c7.9-14,18.4-25.7,31.5-35.1c6.3-4.5,13-8.5,18.7-13.8c9-8.3,16.2-17.9,21.4-28.9c4.2-8.8,7.1-18,8.4-27.7
	c2.2-16.4,0.6-32.2-5.6-47.5L704.6,73.4z M688.3,136.5c-16.8,41-58.9,62.6-93.8,48.2c-35-14.4-49.7-59.3-32.9-100.3
	s58.9-62.6,93.8-48.2C690.4,50.6,705.1,95.5,688.3,136.5L688.3,136.5z"/>
<path class="st2" d="M449.1,248.7c8.7-11,16.2-22.3,20.4-35.5c5.6-17.4,2.9-34.4-1.9-51.3c-3.4-12-7.2-23.9-9.9-36
	c-5.2-22.8,0.2-43.7,13.1-62.9c3.3-5,7.2-9.6,11.7-14.1c-0.3,1.2-0.5,2.4-0.9,3.5c-8.2,19.6-8.2,39.5-2.3,59.6
	c3.6,12.3,8.2,24.4,12.3,36.6c4.2,12.7,7.2,25.6,5.4,39.1c-1.6,11.8-6.9,21.9-14,31.1c-8.8,11.4-19.7,20.5-31.3,28.9
	c-0.7,0.5-1.6,0.7-2.5,1.1L449.1,248.7z"/>
<path class="st2" d="M411.2,251.3c6.3-8,11.8-16.2,14.9-25.9c4.1-12.7,2.1-25.1-1.4-37.4c-2.5-8.7-5.3-17.4-7.3-26.3
	c-3.8-16.6,0.2-31.9,9.6-45.9c2.4-3.6,5.2-7,8.5-10.3c-0.2,0.8-0.4,1.7-0.7,2.5c-6,14.3-6,28.8-1.7,43.4c2.6,9,6,17.8,8.9,26.7
	c3.1,9.3,5.2,18.6,3.9,28.5c-1.1,8.6-5,15.9-10.2,22.7c-6.4,8.3-14.4,15-22.8,21.1c-0.5,0.4-1.2,0.5-1.8,0.8L411.2,251.3z"/>
<path class="st3" d="M284,261.5h434.4v17.4l35.9-8.7c0,0,53.3-9.3,66,40c12.7,49.2-83.4,136.1-146.5,136.1
	c-13.9,19.7-55.6,59.1-89.2,59.1h-168c0,0-52.7-5.8-81.7-60.2s-42.3-90.9-51-183.6L284,261.5z"/>
<path class="st4" d="M336.8,518.2h328.3c0,0-13.1,36.3-45.4,36.3H387.4C351.5,554.5,336.8,518.2,336.8,518.2L336.8,518.2z"/>
<rect x="178.5" y="335" class="st5" width="692.4" height="109.2"/>
<g id="Layer_4">
	<path class="st2" d="M20.1,428.4c-0.8,0-1.6-0.3-2.2-0.9c-0.6-0.6-0.9-1.3-0.9-2.1v-74.5c0-0.8,0.3-1.6,0.9-2.1
		c0.6-0.6,1.3-0.9,2.2-0.9h15.3c1.4,0,2.4,0.4,3.1,1.1c0.7,0.8,1.1,1.3,1.4,1.6l18.4,32l18.4-32c0.2-0.3,0.7-0.8,1.4-1.6
		c0.7-0.8,1.7-1.1,3.1-1.1h15.3c0.8,0,1.6,0.3,2.1,0.9c0.6,0.6,0.9,1.3,0.9,2.1v74.5c0,0.8-0.3,1.6-0.9,2.1
		c-0.6,0.6-1.3,0.9-2.1,0.9H79.3c-0.8,0-1.6-0.3-2.1-0.9c-0.6-0.6-0.9-1.3-0.9-2.1v-37.2L66,406.4c-0.4,0.6-0.9,1.2-1.5,1.8
		c-0.6,0.6-1.5,0.9-2.6,0.9h-7c-1.1,0-1.9-0.3-2.5-0.9s-1.1-1.2-1.5-1.8l-10.3-18.2v37.2c0,0.8-0.3,1.6-0.9,2.1
		c-0.6,0.6-1.3,0.9-2.1,0.9H20.4H20.1z"/>
	<path class="st2" d="M109.6,428.4c-0.7,0-1.3-0.2-1.8-0.7s-0.7-1.1-0.7-1.8s0-0.6,0.2-0.8l26.2-73.6c0.2-0.8,0.7-1.6,1.6-2.4
		c0.8-0.8,1.9-1.1,3.3-1.1h21c1.5,0,2.6,0.4,3.3,1.1c0.8,0.8,1.3,1.6,1.5,2.4l26.3,73.6c0,0.2,0.1,0.5,0.1,0.8
		c0,0.7-0.2,1.3-0.7,1.8s-1.1,0.7-1.8,0.7h-17.7c-1.3,0-2.3-0.3-2.9-0.9c-0.6-0.6-1-1.2-1.3-1.7l-3.6-9.7h-27.7l-3.6,9.7
		c-0.2,0.5-0.6,1.1-1.2,1.7c-0.6,0.6-1.6,0.9-2.9,0.9H109.6L109.6,428.4z M140.3,396.7h17.1l-8.6-25.9L140.3,396.7z"/>
	<path class="st2" d="M201.2,428.4c-0.8,0-1.5-0.3-2.1-0.9c-0.6-0.6-0.9-1.3-0.9-2.1v-74.5c0-0.8,0.3-1.6,0.9-2.1
		c0.6-0.6,1.3-0.9,2.1-0.9h31.5c7.4,0,13.9,1.2,19.3,3.6s9.7,6,12.9,10.6c3.1,4.7,4.8,10.4,5.1,17.2c0.2,3.3,0.2,6.2,0.2,8.7
		s0,5.4-0.2,8.6c-0.3,7.2-1.9,13.1-4.9,17.8c-3,4.7-7.1,8.1-12.5,10.4s-11.8,3.4-19.3,3.4h-32.1L201.2,428.4z M222.9,408.9h9.8
		c2.5,0,4.7-0.4,6.4-1.3c1.8-0.8,3.1-2.2,4.1-4s1.5-4.1,1.6-7c0-2.2,0.1-4.2,0.2-6c0-1.8,0-3.5,0-5.3s0-3.7-0.2-5.9
		c-0.2-4.2-1.4-7.3-3.6-9.2c-2.3-1.9-5.3-2.9-9.1-2.9h-9.2v41.4L222.9,408.9z"/>
	<path class="st2" d="M284.9,428.4c-0.8,0-1.5-0.3-2.1-0.9c-0.6-0.6-0.9-1.3-0.9-2.1v-74.5c0-0.8,0.3-1.6,0.9-2.1
		c0.6-0.6,1.3-0.9,2.1-0.9h56.3c0.8,0,1.6,0.3,2.2,0.9s0.9,1.3,0.9,2.1v13.6c0,0.8-0.3,1.5-0.9,2.1s-1.3,0.9-2.2,0.9h-35.5v11.4h33
		c0.8,0,1.6,0.3,2.2,0.9s0.9,1.3,0.9,2.1v12.4c0,0.8-0.3,1.6-0.9,2.1c-0.6,0.6-1.3,0.9-2.2,0.9h-33v11.6h36.4c0.8,0,1.6,0.3,2.2,0.9
		s0.9,1.3,0.9,2.2v13.4c0,0.8-0.3,1.6-0.9,2.1c-0.6,0.6-1.3,0.9-2.2,0.9H284.9L284.9,428.4z"/>
	<path class="st2" d="M382.8,428.4c-0.8,0-1.5-0.3-2.1-0.9c-0.6-0.6-0.9-1.3-0.9-2.1v-74.5c0-0.8,0.3-1.6,0.9-2.1
		c0.6-0.6,1.3-0.9,2.1-0.9h36.7c7,0,12.7,0.9,17.1,2.8c4.4,1.8,7.7,4.5,9.9,7.9c2.1,3.4,3.2,7.7,3.2,12.8s-0.5,4.9-1.6,7
		c-1,2-2.3,3.7-3.7,5.1c-1.5,1.3-2.8,2.3-4.1,2.9c3,1.3,5.6,3.5,7.8,6.6c2.2,3.1,3.3,6.6,3.3,10.6s-1.2,9.9-3.6,13.6
		s-5.9,6.5-10.5,8.4s-10.1,2.9-16.7,2.9h-37.8L382.8,428.4z M404.5,379.1h12.3c2.5,0,4.3-0.7,5.4-2.1s1.7-3,1.7-4.8
		s-0.6-3.4-1.7-4.8s-3-2.1-5.4-2.1h-12.3V379.1z M404.5,411.1h13.4c2.6,0,4.5-0.8,5.7-2.4s1.8-3.3,1.8-5.2s-0.7-3.7-2-5.2
		s-3.2-2.2-5.6-2.2h-13.4v15.1L404.5,411.1z"/>
	<path class="st2" d="M483,428.4c-0.8,0-1.6-0.3-2.1-0.9c-0.6-0.6-0.9-1.3-0.9-2.1v-23.7l-26.2-50.2c0-0.2-0.2-0.3-0.2-0.5
		s-0.1-0.4-0.1-0.5c0-0.7,0.2-1.3,0.7-1.8s1.1-0.7,1.8-0.7h17.9c1.4,0,2.4,0.3,3.1,1c0.7,0.7,1.1,1.2,1.4,1.6l14,26.4l14-26.4
		c0.2-0.4,0.6-0.9,1.3-1.6s1.7-1,3.1-1h18c0.6,0,1.2,0.2,1.7,0.7s0.7,1.1,0.7,1.8s0,0.3,0,0.5s0,0.4-0.2,0.5l-26.3,50.2v23.7
		c0,0.8-0.3,1.6-0.9,2.1s-1.3,0.9-2.1,0.9H483L483,428.4z"/>
	<path class="st2" d="M593.8,429.6c-7.3,0-13.6-1.1-19.1-3.4c-5.4-2.3-9.7-5.7-12.8-10.3c-3.1-4.6-4.8-10.4-5.1-17.5
		c0-3.1-0.1-6.5-0.1-10.1s0-7,0.1-10.3c0.3-6.9,2-12.7,5.2-17.3c3.2-4.6,7.5-8.1,13-10.4s11.7-3.4,18.8-3.4s9.8,0.6,14.2,1.8
		c4.4,1.2,8.3,3,11.8,5.4c3.4,2.4,6.2,5.4,8.2,9s3,7.7,3.1,12.5c0,0.7-0.2,1.3-0.7,1.7c-0.5,0.5-1.1,0.7-1.8,0.7h-19.4
		c-1.1,0-2-0.2-2.5-0.7s-1-1.3-1.4-2.4c-1-3.3-2.5-5.5-4.4-6.7c-1.9-1.1-4.3-1.7-7-1.7s-6.1,0.9-8,2.7c-2,1.8-3.1,5-3.2,9.5
		c-0.2,6.3-0.2,12.7,0,19.3c0.2,4.5,1.2,7.7,3.2,9.5s4.7,2.7,8,2.7s5.1-0.6,7.1-1.8c2-1.2,3.4-3.4,4.3-6.6c0.3-1.2,0.7-2,1.3-2.5
		c0.6-0.4,1.4-0.6,2.6-0.6h19.4c0.7,0,1.3,0.2,1.8,0.7s0.7,1,0.7,1.7c0,4.8-1.1,8.9-3.1,12.5s-4.7,6.6-8.2,9
		c-3.4,2.4-7.4,4.2-11.8,5.4c-4.4,1.2-9.1,1.8-14.2,1.8L593.8,429.6z"/>
	<path class="st2" d="M676.3,429.6c-7.4,0-13.7-1.1-19.1-3.4c-5.4-2.3-9.7-5.8-12.8-10.4s-4.8-10.4-5-17.3c0-3.2-0.1-6.5-0.1-9.9
		s0-6.8,0.1-10.2c0.2-6.8,1.9-12.6,5-17.2c3.1-4.7,7.4-8.2,12.8-10.6c5.4-2.4,11.8-3.6,19.1-3.6s13.5,1.2,19,3.6
		c5.4,2.4,9.7,6,12.9,10.6c3.1,4.7,4.8,10.4,4.9,17.2c0.2,3.4,0.2,6.8,0.2,10.2s0,6.7-0.2,9.9c-0.2,6.9-1.9,12.7-5,17.3
		c-3.1,4.6-7.4,8.1-12.8,10.4C689.9,428.5,683.6,429.6,676.3,429.6L676.3,429.6z M676.3,410.1c3.2,0,5.9-1,7.9-2.9
		c2.1-2,3.1-5.1,3.2-9.4c0.2-3.3,0.2-6.5,0.2-9.6s0-6.3-0.2-9.5c0-2.8-0.6-5.2-1.6-7s-2.3-3.2-3.9-4c-1.6-0.8-3.5-1.3-5.7-1.3
		s-4.1,0.4-5.7,1.3c-1.7,0.8-3,2.2-4,4s-1.5,4.2-1.6,7c0,3.2-0.1,6.4-0.1,9.5s0,6.3,0.1,9.6c0.2,4.3,1.2,7.4,3.3,9.4
		C670.2,409.2,672.9,410.1,676.3,410.1L676.3,410.1z"/>
	<path class="st2" d="M728.1,428.4c-0.8,0-1.5-0.3-2.1-0.9c-0.6-0.6-0.9-1.3-0.9-2.1v-74.5c0-0.8,0.3-1.6,0.9-2.1
		c0.6-0.6,1.3-0.9,2.1-0.9h55.4c0.8,0,1.6,0.3,2.2,0.9c0.6,0.6,0.9,1.3,0.9,2.1v14.6c0,0.8-0.3,1.5-0.9,2.1
		c-0.6,0.6-1.3,0.9-2.2,0.9h-34.1v12.6h31.8c0.8,0,1.6,0.3,2.2,0.9c0.6,0.6,0.9,1.3,0.9,2.1v14.5c0,0.8-0.3,1.6-0.9,2.1
		c-0.6,0.6-1.3,0.9-2.2,0.9h-31.8v23.8c0,0.8-0.3,1.6-0.9,2.1c-0.6,0.6-1.3,0.9-2.1,0.9H728.1L728.1,428.4z"/>
	<path class="st2" d="M800.8,428.4c-0.8,0-1.5-0.3-2.1-0.9c-0.6-0.6-0.9-1.3-0.9-2.1v-74.5c0-0.8,0.3-1.6,0.9-2.1
		c0.6-0.6,1.3-0.9,2.1-0.9h55.4c0.8,0,1.6,0.3,2.2,0.9c0.6,0.6,0.9,1.3,0.9,2.1v14.6c0,0.8-0.3,1.5-0.9,2.1
		c-0.6,0.6-1.3,0.9-2.2,0.9h-34.1v12.6h31.8c0.8,0,1.6,0.3,2.2,0.9c0.6,0.6,0.9,1.3,0.9,2.1v14.5c0,0.8-0.3,1.6-0.9,2.1
		c-0.6,0.6-1.3,0.9-2.2,0.9h-31.8v23.8c0,0.8-0.3,1.6-0.9,2.1c-0.6,0.6-1.3,0.9-2.1,0.9H800.8L800.8,428.4z"/>
	<path class="st2" d="M873.4,428.4c-0.8,0-1.5-0.3-2.1-0.9c-0.6-0.6-0.9-1.3-0.9-2.1v-74.5c0-0.8,0.3-1.6,0.9-2.1
		c0.6-0.6,1.3-0.9,2.1-0.9h56.3c0.8,0,1.6,0.3,2.2,0.9c0.6,0.6,0.9,1.3,0.9,2.1v13.6c0,0.8-0.3,1.5-0.9,2.1s-1.3,0.9-2.2,0.9h-35.5
		v11.4h33c0.8,0,1.6,0.3,2.2,0.9c0.6,0.6,0.9,1.3,0.9,2.1v12.4c0,0.8-0.3,1.6-0.9,2.1c-0.6,0.6-1.3,0.9-2.2,0.9h-33v11.6h36.4
		c0.8,0,1.6,0.3,2.2,0.9c0.6,0.6,0.9,1.3,0.9,2.2v13.4c0,0.8-0.3,1.6-0.9,2.1c-0.6,0.6-1.3,0.9-2.2,0.9H873.4z"/>
	<path class="st2" d="M948.5,428.4c-0.8,0-1.5-0.3-2.1-0.9c-0.6-0.6-0.9-1.3-0.9-2.1v-74.5c0-0.8,0.3-1.6,0.9-2.1
		c0.6-0.6,1.3-0.9,2.1-0.9h56.3c0.8,0,1.6,0.3,2.2,0.9s0.9,1.3,0.9,2.1v13.6c0,0.8-0.3,1.5-0.9,2.1s-1.3,0.9-2.2,0.9h-35.5v11.4h33
		c0.8,0,1.6,0.3,2.2,0.9s0.9,1.3,0.9,2.1v12.4c0,0.8-0.3,1.6-0.9,2.1c-0.6,0.6-1.3,0.9-2.2,0.9h-33v11.6h36.4c0.8,0,1.6,0.3,2.2,0.9
		s0.9,1.3,0.9,2.2v13.4c0,0.8-0.3,1.6-0.9,2.1c-0.6,0.6-1.3,0.9-2.2,0.9H948.5L948.5,428.4z"/>
</g>
<path class="st5" d="M702.2,337.2c0,0,16.9-22.4,33.2-31.7c30.2-17.2,52.4-2,54.9,11.3c2.2,11.5-13.3,28.7-13.2,28.7L702.2,337.2z"
	/>
</svg>
