<?xml version="1.0" encoding="utf-8"?>
<!-- Generator: Adobe Illustrator 27.9.0, SVG Export Plug-In . SVG Version: 6.00 Build 0)  -->
<svg version="1.1" id="Layer_3_copy" xmlns="http://www.w3.org/2000/svg" xmlns:xlink="http://www.w3.org/1999/xlink" x="0px"
	 y="0px" viewBox="0 0 141.7 141.7" style="enable-background:new 0 0 141.7 141.7;" xml:space="preserve">
<style type="text/css">
	.st0{fill:none;stroke:#A7A9AC;stroke-width:2.4;stroke-miterlimit:10;}
	.st1{fill:#BFB6A6;}
	.st2{fill:#C49A6C;}
	.st3{fill:#594A42;stroke:#FFFFFF;stroke-width:2.4;stroke-miterlimit:10;}
	.st4{fill:#594A42;}
</style>
<path class="st0" d="M79,51.7c0,0,6.2-15.6,7.5-18c1.3-2.6,5.6-1.4,4,2.1c-3.5,7.8-0.5,9.8,3.6,1.4c1.5-3.1,5.4-0.9,4.1,1.7
	C97,41.5,87.5,57.4,87.5,57.4l-9.1-4.1"/>
<path class="st1" d="M116.9,20.8c-1-2.5-2.3-4.7-4-6.8c-1.9-2.4-4.2-4.4-6.9-5.8c-2-1.1-4.1-1.9-6.4-2.4c-5.1-1.2-10.1-0.7-15,1.2
	c-2.5,1-4.9,2.4-7,4.1c-3.2,2.6-5.6,5.7-7.4,9.3c-1.1,2.2-1.9,4.5-2.4,6.9c-0.8,3.8-0.8,7.6,0,11.4c0.4,1.7,0.8,3.4,1,5.1
	c0.4,3.7,0.2,7.3-0.5,10.9c0,0.3,0,0.6-0.3,0.7c-0.3,0.3-0.4,0.6-0.6,1c-0.2,0.5-0.4,0.9-0.6,1.4c-0.1,0.3-0.3,0.4-0.7,0.3
	c-0.8-0.2-1.5,0.1-1.9,0.9c-0.2,0.4-0.3,0.8-0.5,1.2c-0.3,0.8,0,1.5,0.7,1.9c0.5,0.3,0.3,0.7,0.1,1c-0.1,0.4-0.4,0.6-0.8,0.5
	c-0.7-0.2-1.4,0-1.8,0.7c-0.3,0.6-0.6,1.2-0.7,1.9c0,0.6,0.1,1.2,0.7,1.4c0.6,0.3,0.6,0.6,0.4,1.1c0,0.2-0.2,0.4-0.2,0.6
	c-0.1,0.4-0.4,0.5-0.8,0.4c-0.9-0.3-1.6,0-2,0.9c-0.2,0.4-0.3,0.7-0.5,1.1c-0.3,0.8-0.1,1.4,0.5,1.9c0.2,0.2,0.5,0.3,0.8,0.4
	s0.4,0.3,0.4,0.6c0,0.9,0.2,1.7,0.5,2.5c0.7,2.1,2.1,3.8,4.1,4.8c0.4,0.2,0.6,0.4,0.4,0.9c-0.7,2.3,0.3,4.2,2.5,5.1
	c0.6,0.3,1.2,0.5,1.9,0.8c0.7,0.3,1.4,0.6,2.1,0.9s1.3,0.3,2,0.2c1.3-0.2,2.4-0.9,3-2.1c0.2-0.3,0.3-0.7,0.9-0.5c3,0.7,5.7,0,8-2.1
	c0.3-0.2,0.5-0.3,0.8-0.2c0.3,0.2,0.7,0.2,1.1,0c1.1-0.3,2-2.2,1.7-3.2c-0.1-0.3-0.3-0.6-0.5-0.7c-0.4-0.2-0.4-0.5-0.3-0.9
	c0-0.2,0.2-0.4,0.4-0.7c0.2-0.3,0.4-0.5,0.8-0.4c0.7,0.2,1.4-0.2,1.7-0.9c0.2-0.4,0.4-0.8,0.5-1.3c0.2-0.7,0-1.5-0.6-1.8
	c-0.5-0.3-0.4-0.6-0.2-1c0.2-0.4,0.3-0.7,0.9-0.5c0.7,0.2,1.2,0,1.6-0.7c0.3-0.4,0.5-0.9,0.6-1.4c0.3-0.9,0.1-1.4-0.6-1.9
	c-0.4-0.3-0.4-0.5-0.2-0.9c0.4-0.7,0.8-1.5,1.2-2.2c2.4-4.2,5.5-7.7,9.4-10.5c1.9-1.4,3.9-2.5,5.6-4.1c2.7-2.5,4.8-5.3,6.4-8.6
	c1.2-2.6,2.1-5.4,2.5-8.3C119.4,30,118.9,25.3,116.9,20.8L116.9,20.8z M112,39.6C107,51.8,94.4,58.3,84,54s-14.8-17.7-9.8-29.9
	s17.6-18.7,28-14.4S117,27.4,112,39.6z"/>
<path class="st2" d="M40.3,80.9c2.9-3.2,5.4-6.5,6.7-10.5c1.7-5.2,0.5-10.4-1.5-15.6c-1.4-3.7-2.9-7.4-4.1-11.1
	c-2.2-7-0.6-13.3,3.7-18.9c1.1-1.5,2.4-2.8,4-4.1c0,0.3-0.1,0.7-0.3,1c-2.6,5.8-2.3,11.9,0,18c1.5,3.8,3.3,7.5,4.9,11.3
	c1.7,3.9,3,7.9,2.5,11.9c-0.4,3.6-2.1,6.5-4.5,9.2c-3,3.3-6.7,5.9-10.7,8.3c-0.2,0.1-0.6,0.2-0.9,0.3L40.3,80.9z"/>
<path class="st2" d="M26.8,81.1c2.1-2.3,4-4.7,4.9-7.6c1.3-3.8,0.4-7.6-1.1-11.4c-1-2.7-2.1-5.4-3-8.1c-1.6-5.1-0.4-9.7,2.7-13.8
	c0.8-1.1,1.8-2.1,2.9-3c0,0.3,0,0.5-0.2,0.8c-1.9,4.2-1.7,8.7,0,13.1c1.1,2.8,2.4,5.5,3.6,8.2c1.2,2.9,2.2,5.7,1.8,8.7
	c-0.3,2.6-1.6,4.8-3.3,6.7c-2.2,2.4-4.9,4.3-7.8,6c-0.2,0.1-0.4,0.1-0.6,0.2L26.8,81.1z"/>
<path class="st3" d="M9.9,70h103.6v3.7l8.6-1.9c0,0,12.7-2,15.7,8.5s-19.9,29.1-34.9,29.1c-3.3,4.2-13.3,12.6-21.3,12.6H41.5
	c0,0-12.6-1.2-19.5-12.9C15.1,97.5,11.9,89.7,9.9,70L9.9,70z"/>
<path class="st4" d="M22.5,125.2h78.3c0,0-3.1,8.7-10.8,8.7H34.6C26,133.9,22.5,125.2,22.5,125.2z"/>
</svg>
