<svg width="1024" height="1024" viewBox="0 0 1024 1024" fill="none" xmlns="http://www.w3.org/2000/svg">
<g clip-path="url(#clip0_2_27)">
<path d="M829.595 625.692L780.384 639.563L747.883 646.653L741.339 681.773L780.827 682.158L830.187 682.64L846.693 703.633L847.116 744.376L815.882 778.329L762.19 788.453L701.559 795.732L686.464 815.491L686.758 843.734L718.348 844.042L756.965 855.529L824.966 845.082L879.256 797.465L924.545 738.65L924.03 689.11L891.938 640.651L829.595 625.692Z" fill="url(#paint0_linear_2_27)"/>
<path d="M176.122 624.874L202.895 494.123L271.013 494.787L648.722 555.876L760.996 578.729L745.646 668.853L686.7 838.178L651.726 844.781L616.644 888.418L652.434 912.84L687.903 953.925L653.166 983.214L546.605 987.731L257.975 949.732L154.388 907.983L162.448 876.118L194.891 863.472L265.384 855.364L219.663 777.607L176.122 624.874Z" fill="url(#paint1_linear_2_27)"/>
<path d="M878.434 622.941C844.904 611.312 792.293 612.585 764.234 636.746C764.512 628.756 765.099 620.997 766.082 613.556C766.895 613.233 767.708 612.967 768.509 612.543C771.387 611.027 772.13 606.187 769.839 603.885C769.294 603.329 768.678 603.068 768.122 602.585C769.622 596.169 771.522 590.088 774.478 584.941C776.808 580.86 772.336 575.427 767.566 576.155C766.393 576.34 765.332 576.949 764.208 577.39C763.908 575.934 763.396 574.419 762.468 572.891C752.203 555.948 730.933 557.105 712.021 554.865C663.732 549.143 621.371 535.213 573.707 522.874C524.063 510.025 470.967 506.718 419.817 503.676C352.139 490.381 284.101 476.723 215.192 477.75C212.466 470.711 202.075 467.53 197.033 474.539C196.462 474.675 195.89 474.754 195.309 475.013C157.749 491.997 161.491 547.899 157.011 581.297C154.167 602.591 151.618 645.022 169.94 665.434C175.433 732.01 194.76 798.809 231.924 846.011C228.98 846.928 225.855 847.626 222.799 848.401C189.711 837.587 149.526 839.192 133.654 871.421C124.809 889.38 133.09 906.532 147.841 917.833C184 950.609 313.868 969.412 334.021 973.162C398.017 985.121 462.885 992.036 526.857 1004.09C572.799 1012.73 626.109 1022.45 665.578 998.009C669.819 997.838 673.982 997.25 677.952 995.436C688.134 990.785 695.192 983.538 698.8 974.832C705.825 969.074 708.371 961.74 704.087 952.129C704.089 948.711 703.887 945.228 703.164 941.732C698.847 920.724 677.665 910.618 660.188 900.135C656.701 898.048 647.811 892.376 637.763 887.49C652.471 877.46 666.042 865.819 678.902 853.323C714.806 879.721 775.371 871.72 813.931 859.204C868.602 841.453 927.357 791.09 938.647 735.937C948.662 687.01 932.093 641.543 878.434 622.941ZM759.508 702.548C760.123 700.336 760.517 697.882 760.94 695.475C761.868 695.443 762.796 695.411 763.699 695.367C767.027 695.248 768.724 692.513 768.759 689.747C779.752 685.826 800.545 689.276 808.551 690.704C835.028 695.45 850.053 710.518 837.52 735.801C820.017 771.082 771.045 774.607 732.398 778.497C743.905 754.119 752.415 728.343 759.508 702.548ZM651.09 938.292C654.449 938.898 657.815 939.341 661.15 939.811C664.041 942.944 666.323 946.804 667.683 950.663C646.12 944.075 624.2 939.988 601.078 941.134C593.609 941.522 591.97 952.198 598.982 954.784C609.445 958.648 620.023 961.011 630.681 962.738C637.755 964.804 644.943 966.654 652.28 968.046C629.971 966.67 606.622 970.096 583.45 970.637C569.983 969.872 557.696 968.815 548.093 967.897C496.042 959.283 444.107 949.972 391.851 942.289C377.141 940.138 319.939 935.305 265.388 927.369C249.745 924.187 234.08 920.852 218.447 917.257C207.708 913.866 197.037 910.252 186.657 906.194C181.617 903.305 176.222 900.302 171.745 897.267C166.561 890.347 174.32 883.332 187.437 876.958C202.579 875.955 217.733 875.038 232.919 876.806C252.378 879.063 266.524 892.113 285.316 891.779C304.414 902.229 326.136 908.875 350.584 910.886C366.897 917.274 383.459 924.124 400.145 929.357C401.582 931.038 403.469 932.448 406.074 932.989C470.424 946.629 533.364 938.826 588.651 914.632C596.714 916.152 604.867 917.786 612.957 919.592C610.465 919.641 608.008 919.637 605.455 919.793C601.956 919.986 601.2 924.906 604.478 926.156C620.025 932.045 634.697 935.31 651.09 938.292ZM677.151 668.985C688.788 673.991 700.483 674.451 713.051 675.534C716.993 675.866 721.202 676.479 725.453 677.057C724.454 682.579 723.528 687.913 722.694 692.714C711.49 690.902 692.995 691.091 676.865 691.021C668.541 690.041 660.198 689.416 651.979 689.954C648.101 689.375 645.714 688.511 645.74 687.129C645.803 684.235 641.565 681.319 639.425 684.451C637.279 687.564 636.797 690.295 637.461 692.737C634.944 694.508 634.526 698.791 637.33 700.524C651.422 709.185 668.375 712.22 684.679 714.914C694.752 716.577 705.901 719.616 716.504 719.85C713.046 729.483 709.013 738.871 704.576 748.064C704.498 748.052 704.472 747.989 704.394 747.977C697.465 747.104 690.794 747.731 684.091 748.619C668.245 742.361 651.724 738.023 634.725 735.347C625.601 733.913 623.656 746.931 632.697 748.552C633.897 748.769 635.07 749.049 636.263 749.315L635.467 751.956C635.084 753.175 635.456 754.103 636.63 754.782C653.261 764.479 679.435 765.71 698.545 759.774C692.855 770.252 686.243 780.197 679.258 789.861C677.77 789.782 676.335 789.653 674.648 789.834C668.798 790.429 662.803 788.555 656.93 787.794C644.398 786.193 632.412 784.046 619.87 785.978C614.086 786.891 613.018 793.846 618.261 796.452C620.422 797.522 622.625 798.317 624.828 799.111C619.253 799.301 613.678 799.49 608.228 799.384C607.747 799.393 607.63 800.155 608.087 800.3C624.01 804.96 642.93 812.918 660.831 813.302C650.841 824.446 639.732 834.614 627.949 844.089C625.451 843.83 622.835 843.818 620.208 843.938C609.971 839.122 597.678 838.388 586.41 837.57C570.64 836.427 556.578 836.068 540.915 837.754C537.421 838.138 536.719 842.71 539.936 844.125C543.87 845.841 547.689 847.033 551.53 848.428C561.275 861.126 580.894 865.291 599.876 864.123C591.675 869.162 583.192 873.842 574.328 878.057C564.86 882.569 554.969 885.73 544.912 888.351C534.506 884.405 524.954 879.462 514.079 876.373C502.368 873.007 491.799 871.276 479.633 870.993C472.12 870.802 470.592 882.374 477.54 884.628C479.906 885.398 482.23 886.153 484.579 886.92C487.605 892.355 492.791 895.159 498.776 896.808C488.204 898.105 477.548 899.249 466.974 900.563C455.789 899.609 444.548 898.845 433.573 897.392C414.956 894.907 391.159 895.012 369.758 891.071C224.807 818.856 168.743 650.348 209.741 504.751C293.421 529.117 390.315 534.518 475.511 549.417C530.314 559.01 583.039 560.169 637.426 574.319C669.858 582.759 700.769 585.962 733.635 582.445C737.126 583.521 740.163 584.833 742.045 586.848C744.55 589.49 747.352 590.775 750.118 591.257C749.441 592.373 748.861 593.778 748.22 595.007C745.942 594.699 743.597 594.43 741.163 594.097C726.832 592.196 713.574 591.33 699.136 591.569C695.435 591.631 693.391 595.176 693.541 598.244C693.627 599.884 693.747 601.528 693.87 603.157C694.207 607.897 701.652 609.106 703.776 605.043C713.479 608.076 722.993 610.665 733.251 612.456C735.62 612.861 737.952 613.336 740.279 613.784C737.514 622.022 735.05 631.02 732.888 640.188C732.584 640.034 732.409 639.725 732.049 639.645C716.993 635.815 702.176 637.539 687.022 635.212L640.192 628.022C631.081 626.623 629.053 639.828 638.164 641.227L685.012 648.42C700.902 650.86 715.392 648.264 731.189 647.727C730.101 652.738 729.108 657.696 728.15 662.611C724.673 662.541 721.203 662.548 717.89 662.512C704.496 662.364 691.191 661.806 677.994 663.555C675.043 663.932 674.321 667.771 677.151 668.985ZM876.288 771.458C851.146 801.534 809.795 820.899 770.712 829.592C748.709 834.486 725.918 829.427 703.318 826.936C709.249 819.226 714.519 811.14 719.438 802.86C784.039 825.15 875.537 785.656 873.54 714.921C872.686 684.538 839.283 670.224 812.258 666.622C799.135 664.881 777.328 665.49 763.289 672.835C763.547 666.826 763.716 660.695 763.809 654.428C791.413 626.755 858.82 639.727 885.838 660.08C926.787 690.953 901.27 741.615 876.288 771.458Z" fill="black"/>
<path d="M318.422 785.453C292.776 728.827 288.184 677.998 294.523 617.703C297.418 589.887 300.763 568.337 269.91 560.878C269.475 558.862 267.779 556.959 265.533 556.796C254.829 555.999 256.264 555.962 245.65 559.087C238.481 561.222 243.213 572.304 250.071 569.366C218.479 582.96 224.859 660.516 229.776 687.035C235.812 719.5 254.431 775.254 291.541 789.001C292.493 792.682 294.619 794.494 299.159 798.618C308.435 807.036 323.145 795.837 318.422 785.453ZM267.297 575.471C288.363 586.447 270.373 629.527 267.568 643.402C263.443 663.736 263.474 679.082 265.485 699.736C265.808 703.121 266.237 706.623 266.693 710.186C261.396 697.067 257.079 683.568 254.197 669.518C247.386 636.204 260.001 606.171 267.297 575.471Z" fill="black"/>
<path d="M354.027 821.654C343.371 815.462 330.932 815.453 318.913 815.134C316.686 815.074 316.143 818.617 318.285 819.228C329.386 822.401 347.776 826.245 352.644 837.48C353.145 838.611 352.234 842.172 351.159 843.683C350.96 843.652 350.505 843.724 349.698 843.956C348.039 844.125 345.945 843.488 344.396 842.943C339.075 841.13 334.888 833.957 330.812 830.336C327.882 827.746 323.136 829.879 322.585 833.238C320.676 844.976 327.176 854.77 338.904 859.292C350.775 863.869 363.003 861.266 366.167 848.983C368.936 838.231 364.094 827.522 354.027 821.654Z" fill="black"/>
<g clip-path="url(#clip1_2_27)">
<path d="M385.035 317.046L387.236 341.513L504.612 318.382L502.628 296.314L514.091 257.076L548.264 185.327L555.862 129.994L532.751 82.7418L487.964 36.4721L422.49 7.53901L379.793 11.379L315.788 41.8004L265.809 88.371L255.338 138.643L276.725 209.748L310.693 259.409L356.238 287.232L385.035 317.046Z" fill="#FFF6E8"/>
<path d="M507.539 313.283L396.356 335.373L389.322 348.58L404.122 421.728L443.657 441.87L452.633 450.252L477.128 464.492L493.411 446.584L501.06 429.453L523.101 411.028L519.304 368.81L507.539 313.283Z" fill="#988E8B"/>
<path d="M559.463 126.257C562.543 139.432 562.633 153.261 560.082 167.291C558.276 177.122 555.091 186.353 551.306 195.596C546.333 207.649 539.96 218.998 533.955 230.546C528.161 241.779 522.735 253.211 518.761 265.337C514.484 278.4 513.216 291.735 514.075 305.301C514.213 307.353 514.919 308.416 517.224 307.899C517.908 307.762 518.666 307.993 519.36 307.908C521.981 307.602 524.592 307.516 525.635 310.536C526.784 313.808 524.185 315.588 522.249 317.4C520.639 318.926 518.65 320.201 516.577 321.055C513.599 322.309 513.421 323.603 514.527 326.665C521.936 346.416 526.472 366.852 529.177 387.709C530.286 396.244 530.237 404.737 527.452 412.958C526.106 416.895 523.424 420.17 520.773 423.328C517.248 427.593 512.777 431.226 507.893 433.081C502.358 435.231 501.033 438.726 500.004 443.694C498.67 450.146 494.652 455.221 490.359 460.022C483.689 467.435 469.523 470.768 461.426 465.879C455.141 462.104 448.949 457.708 445.473 451.016C443.239 446.702 439.66 445.778 435.639 445.107C426.786 443.543 418.879 440.148 411.498 434.732C405.191 430.031 400.725 424.139 397.185 417.406C395.141 413.492 393.813 409.051 392.769 404.663C390.459 394.782 388.791 384.827 387.913 374.713C387.32 368.209 385.759 361.79 385.651 355.244C385.598 353.887 384.787 353.666 383.513 353.593C376.966 353.154 373.491 349.473 373.835 343C374.044 339.401 376.811 337.094 379.642 335.377C381.883 333.997 382.051 332.924 380.882 330.641C375.582 320.045 368.031 311.325 359.364 303.32C352.72 297.209 345.696 291.666 338.494 286.324C333.345 282.485 327.817 279.215 322.711 275.313C317.288 271.201 312.16 266.647 306.821 262.408C302.725 259.179 299.081 255.477 295.479 251.711C286.539 242.338 278.261 232.45 271.371 221.298C267.79 215.448 264.25 209.535 261.321 203.39C252.228 184.251 246.809 164.047 246.535 142.757C246.382 130.527 248.208 118.613 252.497 106.97C255.083 99.9388 257.722 92.8965 261.161 86.2959C264.484 79.9374 268.407 73.8417 272.657 68.0089C277.422 61.4707 282.524 55.2481 288.174 49.5725C294.266 43.3704 301.063 37.9572 307.997 32.6808C315.689 26.8147 323.949 21.8743 332.526 17.6916C340.355 13.8776 348.279 9.9899 356.952 7.92252C365.098 5.96067 373.107 3.58843 381.411 2.41581C390.842 1.12684 400.199 0.290448 409.788 0.611619C419.43 0.922239 428.883 2.20121 438.242 4.10116C444.916 5.44475 451.422 7.86191 457.917 9.95282C465.055 12.2434 471.783 15.4918 478.258 19.1193C485.407 23.1043 492.366 27.5103 498.853 32.5586C504.686 37.081 510.499 41.7718 515.596 46.9892C521.946 53.5425 528.128 60.3485 533.468 67.8706C542.779 81.0002 549.849 95.2359 555.287 110.346C557.11 115.344 557.923 120.49 559.2 126.31L559.463 126.257ZM424.332 284.71C420.48 263.863 414.544 242.449 409.187 220.919C408.132 216.752 407.078 212.585 405.929 208.492C405.285 206.103 404.201 205.335 401.633 205.905C393.255 207.804 384.919 209.366 376.151 208.223C362.371 206.389 354.516 199.426 351.795 188.313C348.167 173.497 351.708 160.034 363.092 149.378C367.7 145.06 373.71 143.636 379.732 145.549C388.332 148.312 394.346 154.823 399.381 161.914C404.721 169.436 408.598 177.854 412.118 186.398C412.856 188.165 413.782 188.965 415.929 188.479C423.265 186.844 430.675 185.304 438.053 183.879C440.473 183.394 441.357 182.067 441.314 179.668C441.227 174.595 440.277 169.586 441.149 164.376C442.597 155.766 445.046 148.05 453.285 143.278C463.04 137.601 473.387 137.332 483.441 141.063C494.443 145.151 498.438 158.252 492.938 167.948C488.731 175.359 482.691 180.73 475.578 185.112C470.422 188.335 464.739 190.569 459.214 193.045C457.404 193.846 456.183 194.857 456.521 197.088C457.039 200.487 457.24 203.949 457.821 207.391C462.696 234.436 467.73 261.449 472.49 288.463C473.799 295.808 475.497 303.185 475.363 310.71C475.291 313.625 476.502 313.656 478.522 313.36C484.322 312.526 490.1 311.586 495.921 310.857C498.594 310.54 499.257 309.476 498.676 306.856C494.225 286.02 498.994 266.4 507.28 247.389C510.119 240.799 513.379 234.398 516.87 228.061C521.235 220.071 525.041 211.754 529.332 203.669C533.171 196.332 536.525 188.763 539.184 181.005C542.842 170.31 545.332 159.248 544.779 147.755C544.492 141.957 544.531 136.147 543.486 130.391C542.157 122.94 539.501 115.974 536.992 108.924C532.471 96.2029 525.624 84.7138 517.493 74.1938C512.184 67.3768 506.287 60.8969 499.8 55.0277C491.702 47.6754 482.91 41.2286 473.508 35.8346C459.842 28.0117 445.197 22.4099 429.47 19.8714C421.386 18.5917 413.344 17.7961 405.07 17.7584C388.261 17.7357 372.094 20.3754 356.329 26.3827C344.637 30.8617 333.513 36.2666 323.423 43.5443C319.887 46.1142 316.373 48.7892 312.932 51.559C306.661 56.593 301.064 62.2581 295.73 68.144C289.544 74.9671 284.137 82.4002 279.499 90.3907C274.408 99.1287 270.339 108.319 267.744 118.034C265.327 127.002 263.784 136.233 264.252 145.662C264.507 151.851 264.479 157.986 265.492 164.132C266.875 172.393 269.647 180.211 272.524 188.008C275.601 196.258 279.416 204.086 284.082 211.524C286.726 215.701 289.423 219.867 292.351 223.823C295.721 228.346 299.007 232.997 303.009 236.846C307.558 241.243 311.887 245.903 316.709 250.026C321.595 254.191 326.408 258.535 331.672 262.132C336.937 265.728 342.128 269.504 347.351 273.164C354.869 278.443 361.955 284.301 368.863 290.36C373.728 294.693 378.151 299.553 382.017 304.634C387.304 311.62 391.329 319.406 393.648 327.971C394.102 329.686 395.081 330.475 397.049 329.916C406.479 327.259 415.92 324.655 425.318 322.113C426.202 321.881 426.96 321.565 427.086 320.555C427.747 315.661 429.934 311.008 428.679 305.841C427.128 299.201 425.946 292.487 424.406 284.805L424.332 284.71ZM426.177 425.768C434.747 429.468 442.884 430.737 451.379 430.785C457.684 430.834 463.905 431.01 470.22 430.017C481.197 428.254 491.596 424.965 501.287 419.792C506.928 416.8 512.305 412.766 514.08 406.061C515.657 400.272 515.938 394.305 514.588 388.391C511.824 376.247 510.071 363.955 508.213 351.685C507.041 343.929 504.795 336.279 504.739 328.354C504.727 325.839 503.222 325.977 501.338 326.409C469.553 333.604 436.999 337.504 405.805 347.645C399.49 349.733 399.668 348.438 400.419 356.278C400.631 358.425 401.61 358.667 403.525 358.392C408.146 357.684 412.777 357.303 417.398 356.595C432.165 354.346 446.995 352.412 461.392 348.321C464.034 347.572 466.487 348.066 467.467 351.044C468.363 353.874 467.722 355.864 464.565 357.318C459.061 359.899 453.641 362.628 447.927 364.704C441.097 367.223 434.677 370.7 427.362 371.893C420.048 373.086 412.838 374.805 405.555 376.156C403.923 376.483 403.029 376.936 403.44 378.988C403.831 380.935 404.894 380.777 406.262 380.502C409.314 379.89 412.356 379.226 415.429 378.992C437.102 377.602 458.753 376.107 480.256 373.054C481.045 372.896 481.929 372.937 482.761 372.989C484.656 373.157 485.098 374.819 485.604 376.25C486.068 377.471 485.995 379.292 484.785 379.808C479.544 382.063 474.883 385.57 469.168 386.826C449.192 391.214 429.142 395.235 408.891 397.982C406.923 398.267 406.681 398.972 407.208 400.509C408.104 403.066 409.169 405.644 409.959 408.222C410.444 409.821 411.328 409.589 412.391 409.157C420 406.153 428.179 406.539 436.052 405.671C448.366 404.297 460.702 403.027 473.048 401.537C478.827 400.871 484.531 399.289 490.394 399.317C493.025 399.337 494.173 400.694 494.722 403.157C495.302 405.777 493.934 406.872 491.935 407.82C487.988 409.706 483.916 411.234 479.727 412.731C466.182 417.527 452.364 421.228 438.113 423.32C434.281 423.869 430.345 424.166 425.851 425.778L426.177 425.768ZM450.204 238.473C449.994 238.515 449.836 238.547 449.625 238.589C449.013 235.538 448.401 232.486 447.8 229.487C446.059 219.984 444.317 210.481 442.681 200.958C442.291 199.011 441.743 197.917 439.428 198.381C432.86 199.753 426.335 201.061 419.746 202.328C417.904 202.697 417.315 203.581 417.821 205.286C418.591 208.032 419.571 210.737 420.078 213.536C425.428 241.581 433.177 269.035 438.527 297.079C439.783 303.614 441.417 310.128 439.252 316.802C438.411 319.433 440.316 318.832 441.674 318.505C449.757 316.775 457.882 315.529 466.081 314.651C469.186 314.302 468.923 312.987 468.069 310.914C466.752 307.62 465.119 304.39 464.265 300.949C460.742 287.206 456.957 273.516 454.372 259.53C453.074 252.511 451.555 245.482 450.151 238.484L450.204 238.473ZM394.342 191.932C394.342 191.932 394.363 192.038 394.374 192.09C395.637 191.837 396.931 191.468 398.215 191.32C400.91 191.108 401.341 189.708 400.456 187.477C396.209 177.218 392.246 166.738 383.696 159.039C377.946 153.843 371.229 151.741 366.465 160.469C362.784 167.227 362.125 174.311 363.433 181.656C363.929 184.403 365.162 187.275 367.174 189.116C371.386 192.923 376.67 194.162 382.312 193.633C386.343 193.263 390.343 192.461 394.332 191.88L394.342 191.932ZM459.849 178.195C464.88 177.35 469.868 173.832 474.856 170.862C478.275 168.808 481.484 165.701 483.156 161.48C484.796 157.375 484.426 154.712 480.562 152.368C476.814 150.054 472.435 150.33 468.489 151.122C463.542 152.113 458.953 154.073 456.525 159.432C454.159 164.558 454.877 169.778 454.606 174.977C454.365 178.966 454.902 179.187 459.891 178.132L459.849 178.195ZM490.709 442.109C490.593 441.804 490.466 441.447 490.298 441.152C482.299 442.756 474.3 444.36 466.301 445.964C464.722 446.28 464.47 447.48 465.386 448.227C467.745 450.162 469.557 452.919 473.315 452.822C481.314 452.586 485.88 447.237 490.709 442.109Z" fill="black"/>
</g>
<g clip-path="url(#clip2_2_27)">
<path d="M564.417 377.509L556.47 393.227L622.744 419.859L629.912 405.682L650.032 385.683L693.321 353.701L717.48 322.522L723.55 285.616L718.595 241.782L697.066 201.358L674.646 188.875L631.934 185.236L590.163 196.34L566.459 223.428L550.738 274.313L549.119 316.462L561.254 349.286L564.417 377.509Z" fill="#FFF6E8"/>
<path d="M626.066 417.759L563.222 392.642L554.888 398.271L535.173 448.117L547.186 474.159L548.508 482.399L555.302 499.61L569.921 494.321L580.005 486.508L597.647 482.902L611.36 455.781L626.066 417.759Z" fill="#988E8B"/>
<path d="M720.63 321.489C717.283 330.611 712.224 339.094 705.791 346.783C701.274 352.164 696.301 356.7 691.028 361.034C684.133 366.673 676.81 371.395 669.594 376.368C662.598 381.22 655.71 386.322 649.281 392.354C642.355 398.852 636.81 406.561 632.227 415.15C631.537 416.453 631.492 417.347 632.817 417.832C633.204 417.986 633.491 418.39 633.864 418.58C635.267 419.303 636.582 420.157 635.981 422.365C635.338 424.764 633.403 424.949 631.782 425.384C630.427 425.758 628.978 425.846 627.643 425.648C625.716 425.38 625.15 426.109 624.564 428.365C620.92 443.009 615.609 457.074 609.242 470.761C606.638 476.363 603.479 481.536 599.075 485.593C596.96 487.532 594.432 488.602 591.962 489.611C588.655 490.993 585.115 491.661 582.028 491.098C578.511 490.49 576.57 492.166 574.23 494.844C571.193 498.325 567.343 500.03 563.46 501.474C557.443 503.688 549.245 500.805 547.066 495.004C545.368 490.514 543.944 485.677 544.704 480.379C545.197 476.967 543.778 475.159 542.047 473.352C538.27 469.322 535.633 464.5 534.001 458.626C532.634 453.563 532.611 448.411 533.355 443.066C533.794 439.964 534.78 436.789 535.885 433.744C538.396 426.903 541.25 420.239 544.55 413.753C546.659 409.572 548.26 405.107 550.622 401.069C551.097 400.221 550.78 399.804 550.18 399.317C547.122 396.775 546.771 393.318 549.329 389.482C550.76 387.354 552.972 386.906 554.999 386.84C556.61 386.775 557.089 386.177 557.356 384.375C558.66 376.059 558.164 368.107 556.855 360.204C555.842 354.162 554.432 348.335 552.861 342.568C551.745 338.433 550.233 334.515 549.161 330.356C548.011 325.96 547.169 321.395 546.107 316.95C545.284 313.554 544.858 310.026 544.476 306.473C543.537 297.64 543.115 288.721 543.842 279.512C544.239 274.693 544.68 269.85 545.507 265.077C548.097 250.222 552.887 235.991 560.611 222.884C565.048 215.357 570.344 208.709 576.75 203.084C580.617 199.684 584.514 196.297 588.642 193.457C592.623 190.725 596.803 188.363 601.046 186.274C605.803 183.933 610.609 181.902 615.483 180.396C620.768 178.721 626.11 177.773 631.468 176.957C637.416 176.043 643.303 175.893 649.065 176.316C654.324 176.704 659.657 177.08 664.686 178.829C669.417 180.459 674.232 181.791 678.75 183.959C683.865 186.447 688.776 189.185 693.375 192.712C698.003 196.251 702.181 200.316 706.083 204.728C708.87 207.867 711.179 211.604 713.602 215.138C716.268 219.017 718.378 223.339 720.225 227.805C722.271 232.724 724.068 237.834 725.396 243.172C726.596 247.962 727.724 252.848 728.306 257.807C729.011 264.018 729.54 270.324 729.391 276.776C729.125 288.035 727.349 299.191 724.448 310.314C723.5 314.002 722.001 317.43 720.481 321.43L720.63 321.489ZM595.681 371.396C601.48 357.317 606.463 342.168 611.773 327.148C612.792 324.235 613.811 321.322 614.757 318.421C615.322 316.738 615.072 315.892 613.598 315.348C608.777 313.599 604.1 311.658 600.208 307.915C594.107 302.007 592.812 295.023 595.575 287.287C599.259 276.971 605.969 269.973 615.502 267.414C619.362 266.376 622.843 267.593 625.1 270.854C628.311 275.53 628.866 281.598 628.725 287.68C628.576 294.132 627.377 300.624 625.955 307.068C625.666 308.405 625.827 309.215 627.062 309.664C631.274 311.213 635.487 312.845 639.642 314.537C641.012 315.081 641.936 314.577 642.801 313.095C644.63 309.965 646.012 306.574 648.363 303.692C652.253 298.933 656.305 295.068 662.119 295.014C669.013 294.932 674.202 298.361 677.771 304.133C681.673 310.453 678.804 319.848 672.52 323.863C667.715 326.931 662.762 328.116 657.646 328.323C653.92 328.502 650.3 327.894 646.669 327.488C645.483 327.349 644.509 327.543 643.852 329.024C642.852 331.281 641.674 333.467 640.689 335.772C633.106 353.995 625.613 372.253 617.985 390.416C615.918 395.36 614.031 400.458 611.188 405.011C610.076 406.767 610.66 407.207 611.764 407.728C614.924 409.232 618.114 410.665 621.246 412.241C622.678 412.975 623.396 412.556 624.078 410.753C629.578 396.472 639.165 386.138 650.257 377.396C654.085 374.355 658.051 371.575 662.107 368.915C667.203 365.547 672.145 361.787 677.239 358.336C681.835 355.184 686.279 351.724 690.45 347.906C696.196 342.64 701.503 336.744 705.473 329.528C707.472 325.884 709.635 322.347 711.246 318.466C713.341 313.451 714.605 308.271 715.973 303.091C718.444 293.746 719.316 284.346 719.199 275.092C719.104 269.082 718.594 263.073 717.569 257.233C716.299 249.927 714.354 242.933 711.719 236.371C707.884 226.843 702.748 218.333 695.948 211.319C692.444 207.729 688.782 204.45 684.726 201.553C676.465 195.701 667.539 191.699 657.567 189.895C650.162 188.571 642.696 188.011 635.046 188.954C632.359 189.297 629.643 189.711 626.928 190.209C621.986 191.107 617.142 192.625 612.346 194.37C606.785 196.392 601.382 199.057 596.151 202.329C590.423 205.901 585.029 210.105 580.167 215.141C575.669 219.783 571.503 224.888 568.253 230.814C566.095 234.684 563.816 238.424 562.047 242.533C559.678 248.062 558.156 253.803 556.694 259.567C555.163 265.678 554.151 271.787 553.701 277.954C553.46 281.425 553.249 284.908 553.229 288.342C553.218 292.278 553.118 296.261 553.666 300.004C554.281 304.271 554.69 308.623 555.541 312.818C556.407 317.06 557.171 321.387 558.434 325.413C559.696 329.44 560.856 333.55 562.075 337.601C563.824 343.439 565.148 349.481 566.31 355.583C567.104 359.921 567.486 364.427 567.513 368.875C567.535 374.981 566.642 381.137 564.622 387.178C564.212 388.384 564.402 389.206 565.577 389.548C571.196 391.199 576.801 392.887 582.362 394.598C582.882 394.763 583.372 394.833 583.807 394.259C585.938 391.498 588.731 389.414 590.02 385.82C591.708 381.223 593.605 376.709 595.682 371.479L595.681 371.396ZM544.53 458.246C547.38 463.484 550.915 467.086 555.075 470.066C558.159 472.286 561.154 474.554 564.627 476.141C570.678 478.876 577.006 480.477 583.683 480.682C587.561 480.813 591.695 480.215 595.043 476.734C597.955 473.743 600.296 470.194 601.814 466.11C604.936 457.729 608.61 449.608 612.225 441.463C614.511 436.316 616.229 430.86 619.126 425.997C620.049 424.456 619.258 424.017 618.171 423.627C599.881 416.984 582.427 408.061 563.34 403.425C559.464 402.507 560.029 401.778 557.505 406.83C556.817 408.216 557.21 408.703 558.253 409.201C560.787 410.373 563.206 411.749 565.74 412.921C573.834 416.675 581.843 420.644 590.435 423.145C592.011 423.605 593.035 424.758 592.418 426.919C591.814 428.96 590.765 429.953 588.675 429.745C585.015 429.411 581.342 429.196 577.765 428.481C573.475 427.648 569.035 427.543 564.996 425.731C560.958 423.92 556.777 422.467 552.696 420.763C551.772 420.396 551.165 420.362 550.61 421.759C550.084 423.085 550.665 423.357 551.439 423.665C553.167 424.351 554.908 425.001 556.506 425.926C567.68 432.604 578.882 439.21 590.586 444.812C591.033 444.99 591.452 445.322 591.842 445.643C592.712 446.404 592.317 447.574 592.037 448.624C591.815 449.531 591.107 450.618 590.321 450.514C586.911 450.072 583.324 450.596 580.049 449.378C568.603 445.122 557.257 440.615 546.282 435.261C545.208 434.751 544.829 435.098 544.521 436.22C544.019 438.094 543.591 440.04 543.028 441.89C542.676 443.036 543.197 443.201 543.879 443.306C548.73 444.113 552.612 447.189 556.804 449.394C563.369 452.831 569.906 456.34 576.529 459.717C579.617 461.317 583.007 462.331 585.88 464.385C587.168 465.311 587.232 466.539 586.593 468.235C585.911 470.038 584.834 470.232 583.5 470.117C580.863 469.899 578.296 469.418 575.683 468.878C567.25 467.105 559.087 464.567 551.305 460.896C549.218 459.901 547.172 458.715 544.366 458.14L544.53 458.246ZM625.471 352.123C625.352 352.076 625.263 352.041 625.144 351.993C625.969 349.916 626.794 347.838 627.605 345.796C630.256 339.384 632.906 332.971 635.616 326.582C636.143 325.257 636.277 324.398 634.967 323.877C631.23 322.434 627.537 320.968 623.829 319.453C622.786 319.039 622.17 319.375 621.79 320.593C621.155 322.539 620.639 324.532 619.855 326.419C612.137 345.417 605.817 364.887 598.098 383.886C596.304 388.316 594.704 392.864 591.176 396.191C589.792 397.507 590.95 397.802 591.739 398.073C596.354 399.823 600.81 401.884 605.168 404.195C606.824 405.061 607.179 404.165 607.525 402.602C608.092 400.131 608.481 397.59 609.331 395.19C612.67 385.568 615.86 375.886 619.75 366.44C621.702 361.7 623.549 356.876 625.441 352.111L625.471 352.123ZM615.169 304.277C615.169 304.277 615.14 304.348 615.126 304.384C615.841 304.668 616.614 304.892 617.3 305.248C618.704 306.054 619.432 305.348 619.82 303.677C621.517 295.932 623.436 288.151 622.071 280.475C621.161 275.303 618.632 271.685 613.068 275.365C608.763 278.217 605.824 282.317 603.757 287.26C602.987 289.111 602.534 291.295 602.844 293.119C603.511 296.909 605.653 299.502 608.623 301.138C610.743 302.311 613.006 303.21 615.183 304.241L615.169 304.277ZM652.462 318.633C655.248 319.864 659 319.447 662.55 319.364C664.99 319.296 667.715 318.512 670.095 316.513C672.417 314.573 673.218 312.818 672.182 310.043C671.192 307.327 668.937 305.975 666.703 305.087C663.904 303.976 660.923 303.58 657.751 306.011C654.695 308.322 653.122 311.762 651.07 314.845C649.48 317.2 649.662 317.521 652.506 318.609L652.462 318.633ZM570.243 490.648C570.298 490.421 570.368 490.158 570.394 489.92C565.867 488.122 561.341 486.324 556.814 484.526C555.921 484.171 555.354 484.817 555.529 485.591C555.975 487.593 555.849 489.907 557.733 491.153C561.755 493.788 565.975 492.105 570.243 490.648Z" fill="black"/>
</g>
</g>
<defs>
<linearGradient id="paint0_linear_2_27" x1="788.475" y1="704.078" x2="805.759" y2="829.002" gradientUnits="userSpaceOnUse">
<stop offset="0.0322217" stop-color="#FFFDF5"/>
<stop offset="1" stop-color="#BDA085"/>
</linearGradient>
<linearGradient id="paint1_linear_2_27" x1="415.314" y1="663.735" x2="445.658" y2="930.958" gradientUnits="userSpaceOnUse">
<stop offset="0.0322217" stop-color="#FFFDF5"/>
<stop offset="1" stop-color="#BDA085"/>
</linearGradient>
<clipPath id="clip0_2_27">
<rect width="1024" height="1024" fill="white"/>
</clipPath>
<clipPath id="clip1_2_27">
<rect width="421.97" height="573.666" fill="white" transform="translate(164 4.96222) rotate(-11.3386)"/>
</clipPath>
<clipPath id="clip2_2_27">
<rect width="251.929" height="412.039" fill="white" transform="translate(570.865 110.002) rotate(21.6629)"/>
</clipPath>
</defs>
</svg>
